# xmcd CD database file
#
# Track frame offsets:
#	150
#	26920
#	48028
#	73187
#	91456
#	108994
#	125649
#	148272
#	169882
#	188991
#	202417
#	217176
#	239180
#	254709
#	275609
#	299656
#	318065
#
# Disc length: 4474 seconds
#
# Revision: 0
# Processed by: cddbd v1.5.2PL0 Copyright (c) Steve Scherf et al.
# Submitted via: CDex 1.70beta2
#
DISCID=29117811
DTITLE=Geoff Achison and the Souldiggers - Little Big Men (Remastered)
DYEAR=2012
DGENRE=Blues
TTITLE0=Crazy Horse
TTITLE1=News
TTITLE2=Happening
TTITLE3=Rule the World
TTITLE4=Little Big Men
TTITLE5=Feel Like a King
TTITLE6=Waggin the Dog
TTITLE7=Zombify
TTITLE8=Bit By Bit
TTITLE9=Fake Identity
TTITLE10=Living in Fear
TTITLE11=Never Give It Up
TTITLE12=Reach for the Sky
TTITLE13=Boy
TTITLE14=Kerry Lou
TTITLE15=Chasing My Tail
TTITLE16=Chance
EXTD=YEAR: 2012
EXTT0=
EXTT1=
EXTT2=
EXTT3=
EXTT4=
EXTT5=
EXTT6=
EXTT7=
EXTT8=
EXTT9=
EXTT10=
EXTT11=
EXTT12=
EXTT13=
EXTT14=
EXTT15=
EXTT16=
PLAYORDER=
